<svg width="38" height="38" viewBox="0 0 38 38" fill="none" xmlns="http://www.w3.org/2000/svg">
<path d="M17.12 0.730181C23.88 3.88318 25.443 7.81618 25.776 9.88018C26.152 12.2362 25.321 14.0172 24.493 14.8242C23.655 15.6442 22.771 16.0582 21.865 16.0582C21.604 16.0582 21.359 16.0232 21.132 15.9652L16.161 1.48018C16.1438 1.35495 16.1593 1.22739 16.2061 1.10996C16.2529 0.992529 16.3294 0.889241 16.428 0.81018L17.12 0.730181ZM17.12 0.728181C17.0083 0.676728 16.8846 0.657156 16.7624 0.671627C16.6403 0.686098 16.5246 0.734048 16.428 0.81018L17.12 0.728181ZM17.12 0.728181L16.908 1.18118C23.528 4.27118 24.977 8.06918 25.282 9.95718C25.635 12.1652 24.848 13.7792 24.144 14.4652H24.143C23.371 15.2222 22.606 15.5572 21.865 15.5572C21.6461 15.5568 21.4281 15.5272 21.217 15.4692C21.891 11.2842 21.289 8.27118 20.109 5.18918C20.0547 5.04055 19.971 4.90436 19.8629 4.78873C19.7549 4.6731 19.6247 4.58039 19.4801 4.5161C19.3355 4.45182 19.1794 4.41728 19.0212 4.41455C18.8629 4.41181 18.7058 4.44094 18.559 4.50018L18.552 4.50318C18.2608 4.63028 18.0301 4.86513 17.9082 5.15854C17.7863 5.45194 17.7826 5.78115 17.898 6.07718C19.023 9.01718 19.532 11.7172 18.761 15.7412C18.299 15.8802 17.841 15.9992 17.406 15.9992C16.27 15.9992 15.339 15.6322 14.641 14.9942C13.941 14.3542 13.445 13.4132 13.241 12.2192C12.713 9.12518 14.065 6.97518 15.241 5.12718L15.263 5.09218C15.647 4.48818 16.029 3.88618 16.295 3.30218C16.568 2.70418 16.744 2.07218 16.656 1.41418C16.6502 1.3751 16.6545 1.33519 16.6685 1.29825C16.6825 1.26131 16.7057 1.22857 16.736 1.20318L16.428 0.81018L17.12 0.728181ZM17.12 0.728181L16.909 1.18218C16.8809 1.16926 16.8498 1.16409 16.819 1.16718C16.789 1.17173 16.7607 1.18415 16.737 1.20318L16.428 0.81018L17.12 0.728181ZM20.559 16.3022C20.5153 16.2846 20.472 16.2663 20.429 16.2472L20.324 16.2022C20.233 16.2522 20.138 16.2992 20.041 16.3432L20.559 16.3022ZM20.559 16.3022L20.16 15.7202C20.146 15.7982 20.1317 15.8762 20.117 15.9542L20.056 16.0592L20.093 16.0802L20.041 16.3432L20.559 16.3022ZM20.559 16.3022C20.2952 17.6115 19.9566 18.9046 19.545 20.1752L20.559 16.3022ZM20.559 16.3022L19.545 20.1752L20.559 16.3022ZM20.041 16.3432C19.7844 17.5863 19.4599 18.8145 19.069 20.0222L20.041 16.3432ZM20.041 16.3432C19.905 16.4053 19.7665 16.462 19.626 16.5132L20.041 16.3432ZM19.069 20.0222L19.626 16.5122L19.069 20.0222ZM19.069 20.0222C19.037 20.1212 18.957 20.1662 18.891 20.1662C18.8759 20.1658 18.861 20.1628 18.847 20.1572L18.838 20.1542C18.753 20.1242 18.675 20.0082 18.718 19.8702C19.0744 18.7701 19.3761 17.6531 19.622 16.5232L19.069 20.0222ZM19.069 20.0222L19.622 16.5222L19.069 20.0222ZM19.626 16.5122L19.624 16.5222H19.622L19.626 16.5122ZM19.626 16.5122L19.622 16.5222L19.626 16.5122ZM19.545 20.1752C19.502 20.3157 19.4155 20.439 19.298 20.5272C19.1805 20.6155 19.038 20.6641 18.891 20.6662C18.8179 20.6655 18.7454 20.652 18.677 20.6262C18.315 20.5032 18.122 20.0962 18.241 19.7192L19.545 20.1752ZM2.26101 24.0002L2.66201 23.7022L2.65001 23.6852L2.63701 23.6702L2.50401 23.5202C2.12501 23.0922 1.82601 22.7532 1.59601 22.2752C1.34601 21.7552 1.16701 21.0342 1.16701 19.8342V9.83418C1.16701 9.11718 1.40201 8.63018 1.72701 8.32118C2.05701 8.00718 2.52501 7.83418 3.05801 7.83418C3.59101 7.83418 4.05801 8.00718 4.38901 8.32118C4.71401 8.63118 4.94901 9.11718 4.94901 9.83418V16.9692C4.91665 16.9863 4.88497 17.0047 4.85401 17.0242C4.67813 17.1396 4.52154 17.282 4.39001 17.4462C4.07826 17.8397 3.86378 18.3012 3.76401 18.7932C3.52701 19.9002 3.77901 21.3162 5.07201 22.6832L8.56801 26.5862L8.57101 26.5902C8.67557 26.7074 8.80375 26.8012 8.94714 26.8653C9.09053 26.9295 9.24587 26.9625 9.40296 26.9623C9.56004 26.9621 9.7153 26.9287 9.85853 26.8642C10.0018 26.7997 10.1297 26.7057 10.234 26.5882C10.4406 26.356 10.5544 26.0559 10.5539 25.7451C10.5533 25.4343 10.4384 25.1346 10.231 24.9032L6.41301 20.6612L6.41001 20.6582C5.87801 20.0782 5.87501 19.1432 6.42301 18.5432L6.42401 18.5422C6.49601 18.4622 6.73901 18.2412 7.07601 18.1802C7.36901 18.1272 7.85101 18.1742 8.48601 18.8362L12.301 23.0912L12.306 23.0962L12.311 23.1012C13.946 24.8212 15.311 26.9462 15.311 29.8332V36.5002C15.311 36.5962 15.311 36.6602 15.304 36.7182C15.302 36.7429 15.2963 36.7672 15.287 36.7902C15.2004 36.8237 15.1078 36.8387 15.015 36.8342H8.63801C8.59656 36.8347 8.55513 36.8324 8.51401 36.8272C8.476 36.823 8.43889 36.8129 8.40401 36.7972C8.38929 36.7915 8.37671 36.7814 8.36801 36.7682C8.36301 36.7602 8.34101 36.7202 8.34101 36.6182V31.3362L8.24401 31.2042C7.83201 30.6442 6.43501 28.7682 5.14401 27.0332L3.41801 24.7162L2.86801 23.9782L2.71601 23.7732L2.67601 23.7202L2.66601 23.7062L2.66301 23.7032V23.7022L2.26101 24.0002ZM33.051 16.9692V9.83418C33.051 9.11718 33.286 8.63018 33.611 8.32118C33.941 8.00718 34.409 7.83418 34.942 7.83418C35.475 7.83418 35.942 8.00718 36.273 8.32118C36.598 8.63118 36.833 9.11718 36.833 9.83418V19.8342C36.833 21.0342 36.655 21.7542 36.405 22.2752C36.175 22.7532 35.875 23.0922 35.497 23.5202L35.364 23.6702L35.351 23.6852L35.339 23.7022L35.739 24.0002L35.339 23.7022H35.338L35.335 23.7062L35.325 23.7202L35.285 23.7732L35.133 23.9782L34.583 24.7162L32.857 27.0332C31.8215 28.4216 30.7882 29.8116 29.757 31.2032L29.66 31.3362V36.6172C29.66 36.7202 29.638 36.7602 29.632 36.7682C29.6238 36.7808 29.612 36.7906 29.598 36.7962C29.5628 36.812 29.5254 36.8221 29.487 36.8262C29.4459 36.8314 29.4045 36.8337 29.363 36.8332H22.986C22.8933 36.838 22.8007 36.8234 22.714 36.7902C22.7048 36.7672 22.6991 36.7429 22.697 36.7182C22.6898 36.6457 22.6871 36.5729 22.689 36.5002V29.8332C22.689 26.9462 24.054 24.8202 25.689 23.1012L25.695 23.0962L25.7 23.0912L29.515 18.8362C30.15 18.1742 30.632 18.1272 30.925 18.1802C31.262 18.2402 31.505 18.4602 31.581 18.5432C32.126 19.1432 32.123 20.0782 31.593 20.6592L31.591 20.6612L27.77 24.9042H27.768C27.5613 25.1359 27.4471 25.4356 27.4471 25.7462C27.4471 26.0567 27.5613 26.3564 27.768 26.5882C27.8723 26.7055 28.0002 26.7994 28.1433 26.8638C28.2865 26.9282 28.4416 26.9616 28.5986 26.9618C28.7555 26.962 28.9107 26.9289 29.054 26.8649C29.1973 26.8009 29.3255 26.7072 29.43 26.5902L29.433 26.5862L32.928 22.6822C34.222 21.3162 34.473 19.9002 34.237 18.7932C34.1368 18.3014 33.922 17.8403 33.61 17.4472C33.4786 17.2827 33.322 17.1399 33.146 17.0242C33.1151 17.0046 33.0834 16.9863 33.051 16.9692Z" fill="#2C70C1" stroke="#2C70C1"/>
</svg>
